<svg id="Capa_1" enable-background="new 0 0 478.866 478.866" height="512" viewBox="0 0 478.866 478.866" width="512" xmlns="http://www.w3.org/2000/svg"><g><path d="m57.495 209.547v129.25c0 22.874 18.543 41.417 41.417 41.417v5h306.483v-5c9.15 0 16.567-7.417 16.567-16.567v-154.1z" fill="#f4dbb3"/><path d="m398.962 209.547v154.1c0 9.15-7.417 16.567-16.567 16.567h23c9.15 0 16.567-7.417 16.567-16.567v-154.1z" fill="#eac89f"/><path d="m421.962 347.08h-314.767c-9.15 0-16.567-7.417-16.567-16.567v-120.966h331.333v137.533z" fill="#966a5b"/><path d="m90.628 264.247h331.333v33.133h-331.333z" fill="#ffd97d"/><g><g><path d="m165.178 153.28v-29.85c0-13.724 11.126-24.85 24.85-24.85h99.4c13.724 0 24.85 11.126 24.85 24.85v29.85z" fill="#966a5b"/></g></g><ellipse cx="239.728" cy="65.447" fill="#d34848" rx="33.133" ry="33.133" transform="matrix(.16 -.987 .987 .16 136.726 291.596)"/><path d="m74.062 148.28c0-18.299 14.834-33.133 33.133-33.133s33.133 14.834 33.133 33.133v5h-66.266z" fill="#e55964"/><ellipse cx="239.728" cy="65.447" fill="#e55964" rx="33.133" ry="33.133" transform="matrix(.16 -.987 .987 .16 136.726 291.596)"/><path d="m239.728 32.313c-4.044 0-7.917.727-11.5 2.053 12.63 4.675 21.633 16.825 21.633 31.081 0 14.255-9.003 26.405-21.633 31.08 3.583 1.326 7.456 2.053 11.5 2.053 18.299 0 33.133-14.835 33.133-33.133.001-18.299-14.834-33.134-33.133-33.134z" fill="#db404f"/><path d="m289.428 98.58h-23c13.724 0 24.85 11.125 24.85 24.85v29.85h23v-29.85c0-13.724-11.125-24.85-24.85-24.85z" fill="#8a5a51"/><path d="m107.195 115.147c-4.044 0-7.917.727-11.5 2.053 12.63 4.675 21.633 16.825 21.633 31.081v5h23v-5c0-18.3-14.834-33.134-33.133-33.134z" fill="#db404f"/><path d="m398.962 209.547h23v137.533h-23z" fill="#8a5a51"/><path d="m398.962 264.247h23v33.133h-23z" fill="#ffc269"/><path d="m421.962 214.547h-132.534c-9.15 0-16.567 7.417-16.567 16.567v16.567c0 9.415-7.854 16.996-17.368 16.548-8.91-.419-15.766-8.095-15.766-17.016v-16.099c0-9.415-7.854-16.996-17.368-16.548-8.911.42-15.766 8.095-15.766 17.016v66.033c0 9.415-7.854 16.996-17.368 16.548-8.911-.42-15.766-8.095-15.766-17.016v-66.033c0-9.15-7.417-16.567-16.567-16.567h-99.4c-18.608 0-33.634-15.34-33.121-34.065.495-18.047 15.756-32.202 33.81-32.202h330.644c18.299 0 33.133 14.834 33.133 33.133v33.134z" fill="#e57283"/><g fill="#e56074"><path d="m249.862 231.114v16.567c0 4.638-1.912 8.826-4.984 11.833 2.774 2.737 6.466 4.519 10.616 4.715 9.514.448 17.368-7.133 17.368-16.548v-16.567c0-9.15 7.417-16.567 16.567-16.567h-23c-9.15 0-16.567 7.417-16.567 16.567z"/><path d="m199.361 214.566c-8.911.42-15.766 8.095-15.766 17.016v66.033c0 4.638-1.912 8.825-4.984 11.833 2.774 2.737 6.466 4.519 10.616 4.715 9.514.448 17.368-7.133 17.368-16.548v-66.033c0-4.765 1.969-9.162 5.15-12.301-3.164-3.097-7.557-4.942-12.384-4.715z"/><path d="m388.828 148.28h-23c18.299 0 33.133 14.834 33.133 33.133v33.133h23v-33.133c.001-18.298-14.834-33.133-33.133-33.133z"/></g><g><path d="m405.291 413.381c0 18.32-14.852 33.172-33.172 33.172h-265.373c-18.32 0-33.172-14.852-33.172-33.172v-9.105h331.716v9.105z" fill="#d6e0ff"/><path d="m382.291 404.276v9.105c0 18.32-14.852 33.172-33.172 33.172h23c18.32 0 33.172-14.851 33.172-33.172v-9.105z" fill="#c2d1ff"/><path d="m455.049 413.381c9.16 0 16.586-7.426 16.586-16.586s-7.426-16.586-16.586-16.586h-431.232c-9.16 0-16.586 7.426-16.586 16.586s7.426 16.586 16.586 16.586z" fill="#edf4ff"/><path d="m455.049 380.209h-23c9.16 0 16.586 7.426 16.586 16.586s-7.426 16.586-16.586 16.586h23c9.16 0 16.586-7.426 16.586-16.586s-7.426-16.586-16.586-16.586z" fill="#d6e0ff"/></g></g><path d="m454.8 372.75h-27.412c1.143-2.8 1.779-5.86 1.779-9.066v-182.234c0-22.405-18.228-40.634-40.633-40.634h-67.05v-17.35c0-17.838-14.512-32.35-32.35-32.35h-18.202c5.706-6.998 9.135-15.922 9.135-25.634 0-22.405-18.228-40.633-40.633-40.633s-40.634 18.229-40.634 40.634c0 9.712 3.429 18.636 9.135 25.634h-18.202c-17.838 0-32.35 14.512-32.35 32.35v17.35h-10.555c-3.53-18.833-20.086-33.133-39.928-33.133s-36.397 14.3-39.928 33.133h-9.083c-22.179 0-40.71 17.719-41.307 39.498-.304 11.074 3.778 21.541 11.493 29.47 5.941 6.106 13.44 10.101 21.625 11.616v117.434c0 13.161 5.234 25.115 13.717 33.916h-39.351c-13.27-.001-24.066 10.794-24.066 24.065s10.796 24.067 24.066 24.067h42.906c3.53 18.833 20.086 33.133 39.928 33.133h41.417c4.142 0 7.5-3.357 7.5-7.5s-3.358-7.5-7.5-7.5h-41.417c-11.526 0-21.296-7.647-24.511-18.133h314.089c-3.215 10.486-12.986 18.133-24.511 18.133h-193.652c-4.142 0-7.5 3.357-7.5 7.5s3.358 7.5 7.5 7.5h193.651c19.842 0 36.397-14.3 39.928-33.133h42.906c13.27 0 24.066-10.797 24.066-24.067 0-13.271-10.796-24.066-24.066-24.066zm-298.2-150.667c5 0 9.067 4.067 9.067 9.066v25.633h-67.834v-34.699zm-58.767 67.834v-18.134h67.834v18.134zm0 15h69.053c3.044 9.399 11.487 16.293 21.693 16.772 6.653.313 12.959-2.038 17.765-6.624 2.943-2.807 5.105-6.321 6.322-10.148h121.158c4.142 0 7.5-3.357 7.5-7.5s-3.358-7.5-7.5-7.5h-120.024v-18.134h200.367v18.134h-50.342c-4.142 0-7.5 3.357-7.5 7.5s3.358 7.5 7.5 7.5h50.342v34.7h-307.267c-5 0-9.067-4.067-9.067-9.066zm135.979-48.134h-20.012v-25.165c0-5.027 3.866-9.3 8.619-9.524 2.513-.113 4.895.768 6.704 2.494 1.812 1.729 2.81 4.06 2.81 6.563v16.099c0 3.379.671 6.599 1.879 9.533zm180.355 0h-135.892c1.165-2.859 1.791-5.939 1.791-9.066v-16.567c0-4.999 4.067-9.066 9.067-9.066h125.033v34.699zm-200.367-191.3c0-14.134 11.499-25.633 25.633-25.633s25.633 11.499 25.633 25.633c0 14.135-11.499 25.634-25.633 25.634s-25.633-11.499-25.633-25.634zm-41.417 57.983c0-9.566 7.783-17.35 17.35-17.35h99.4c9.566 0 17.35 7.783 17.35 17.35v17.35h-134.1zm-65.483-.783c11.525 0 21.296 7.647 24.511 18.133h-49.023c3.216-10.486 12.986-18.133 24.512-18.133zm-68.074 76.641c-4.866-5.002-7.441-11.607-7.249-18.599.377-13.735 12.181-24.909 26.313-24.909h330.644c14.134 0 25.633 11.499 25.633 25.634v25.634h-125.034c-13.271 0-24.067 10.796-24.067 24.066v16.566c0 2.503-.998 4.833-2.81 6.563-1.809 1.727-4.185 2.625-6.704 2.493-4.753-.224-8.619-4.496-8.619-9.523v-16.099c0-6.547-2.718-12.895-7.456-17.415-4.807-4.585-11.119-6.946-17.765-6.624-12.848.605-22.913 11.37-22.913 24.507v66.033c0 2.503-.998 4.833-2.81 6.561-1.81 1.726-4.189 2.625-6.706 2.493-4.751-.223-8.618-4.495-8.618-9.523v-66.032c0-13.271-10.796-24.066-24.067-24.066h-99.398c-6.98-.001-13.505-2.756-18.374-7.76zm25.874 139.509v-116.75h18.133v108.467c0 13.271 10.796 24.066 24.067 24.066h307.267v9.066c0 4.999-4.067 9.066-9.067 9.066h-306.484c-18.702.002-33.916-15.213-33.916-33.915zm390.1 67.05h-430.734c-4.999 0-9.066-4.067-9.066-9.067 0-4.999 4.067-9.066 9.066-9.066h430.734c4.999 0 9.066 4.067 9.066 9.066 0 5-4.067 9.067-9.066 9.067z"/></svg>